# Blender 4.4.3
# www.blender.org
mtllib quarterplatform.mtl
o Cylinder
v 1.000000 -0.100000 0.000000
v 1.000000 0.100000 0.000000
v 0.980785 -0.100000 0.195090
v 0.980785 0.100000 0.195090
v 0.923880 -0.100000 0.382683
v 0.923880 0.100000 0.382683
v 0.831470 -0.100000 0.555570
v 0.831470 0.100000 0.555570
v 0.707107 -0.100000 0.707107
v 0.707107 0.100000 0.707107
v 0.555570 -0.100000 0.831470
v 0.555570 0.100000 0.831470
v 0.382683 -0.100000 0.923880
v 0.382683 0.100000 0.923880
v 0.195090 -0.100000 0.980785
v 0.195090 0.100000 0.980785
v 0.000000 -0.100000 1.000000
v 0.000000 0.100000 1.000000
v -0.000763 -0.100000 0.000000
v -0.000763 0.100000 0.000000
vn -0.0000 -0.0000 -1.0000
vn -1.0000 -0.0000 0.0008
vn -0.0000 1.0000 -0.0000
vn -0.0000 -1.0000 -0.0000
vn 0.7071 -0.0000 0.7071
vt 0.750000 0.500000
vt 0.499809 0.500000
vt 0.499809 1.000000
vt 0.750000 1.000000
vt 0.500000 0.500000
vt 0.500000 1.000000
vt 0.718750 1.000000
vt 0.531250 1.000000
vt 0.562500 1.000000
vt 0.593750 1.000000
vt 0.625000 1.000000
vt 0.656250 1.000000
vt 0.687500 1.000000
vt 0.718750 0.500000
vt 0.687500 0.500000
vt 0.656250 0.500000
vt 0.625000 0.500000
vt 0.593750 0.500000
vt 0.562500 0.500000
vt 0.531250 0.500000
s 0
f 1/1/1 19/2/1 20/3/1 2/4/1
f 17/5/2 18/6/2 20/3/2 19/2/2
f 4/7/3 2/4/3 20/3/3 18/6/3 16/8/3 14/9/3 12/10/3 10/11/3 8/12/3 6/13/3
f 1/1/4 3/14/4 5/15/4 7/16/4 9/17/4 11/18/4 13/19/4 15/20/4 17/5/4 19/2/4
f 1/1/5 2/4/5 4/7/5 6/13/5 8/12/5 10/11/5 12/10/5 14/9/5 16/8/5 18/6/5 17/5/5 15/20/5 13/19/5 11/18/5 9/17/5 7/16/5 5/15/5 3/14/5
